HIERARCHY
ROOT Hips
{
	OFFSET 0.000000 0.000000 0.000000
	CHANNELS 6 Xposition Yposition Zposition Zrotation Yrotation Xrotation 
	JOINT LHipJoint
	{
		OFFSET 0.000000 0.000000 0.000000
		CHANNELS 3 Zrotation Yrotation Xrotation
		JOINT LeftUpLeg
		{
			OFFSET 1.363060 -1.794630 0.839290
			CHANNELS 3 Zrotation Yrotation Xrotation
			JOINT LeftLeg
			{
				OFFSET 2.448110 -6.726130 0.000000
				CHANNELS 3 Zrotation Yrotation Xrotation
				JOINT LeftFoot
				{
					OFFSET 2.562200 -7.039590 0.000000
					CHANNELS 3 Zrotation Yrotation Xrotation
					JOINT LeftToeBase
					{
						OFFSET 0.157640 -0.433110 2.322550
						CHANNELS 3 Zrotation Yrotation Xrotation
						End Site
						{
							OFFSET 0.000000 0.000000 0.000000
						}
					}
				}
			}
		}
	}
	JOINT RHipJoint
	{
		OFFSET 0.000000 0.000000 0.000000
		CHANNELS 3 Zrotation Yrotation Xrotation
		JOINT RightUpLeg
		{
			OFFSET -1.305520 -1.794630 0.839290
			CHANNELS 3 Zrotation Yrotation Xrotation
			JOINT RightLeg
			{
				OFFSET -2.542530 -6.985550 0.000000
				CHANNELS 3 Zrotation Yrotation Xrotation
				JOINT RightFoot
				{
					OFFSET -2.568260 -7.056230 0.000000
					CHANNELS 3 Zrotation Yrotation Xrotation
					JOINT RightToeBase
					{
						OFFSET -0.164730 -0.452590 2.363150
						CHANNELS 3 Zrotation Yrotation Xrotation
						End Site
						{
							OFFSET 0.000000 0.000000 0.000000
						}
					}
				}
			}
		}
	}
	JOINT LowerBack
	{
		OFFSET 0.000000 0.000000 0.000000
		CHANNELS 3 Zrotation Yrotation Xrotation
		JOINT Spine
		{
			OFFSET 0.028270 2.035590 -0.193380
			CHANNELS 3 Zrotation Yrotation Xrotation
			JOINT Spine1
			{
				OFFSET 0.056720 2.048850 -0.042750
				CHANNELS 3 Zrotation Yrotation Xrotation
				JOINT Neck
				{
					OFFSET 0.000000 0.000000 0.000000
					CHANNELS 3 Zrotation Yrotation Xrotation
					JOINT Neck1
					{
						OFFSET -0.054170 1.746240 0.172020
						CHANNELS 3 Zrotation Yrotation Xrotation
						JOINT Head
						{
							OFFSET 0.104070 1.761360 -0.123970
							CHANNELS 3 Zrotation Yrotation Xrotation
							End Site
							{
								OFFSET 0.000000 0.000000 0.000000
							}
						}
					}
				}
				JOINT LeftShoulder
				{
					OFFSET 0.000000 0.000000 0.000000
					CHANNELS 3 Zrotation Yrotation Xrotation
					JOINT LeftArm
					{
						OFFSET 3.362410 1.200890 -0.311210
						CHANNELS 3 Zrotation Yrotation Xrotation
						JOINT LeftForeArm
						{
							OFFSET 4.983000 -0.000000 -0.000000
							CHANNELS 3 Zrotation Yrotation Xrotation
							JOINT LeftHand
							{
								OFFSET 3.483560 -0.000000 -0.000000
								CHANNELS 3 Zrotation Yrotation Xrotation
								JOINT LeftFingerBase
								{
									OFFSET 0.000000 0.000000 0.000000
									CHANNELS 3 Zrotation Yrotation Xrotation
									JOINT LeftHandIndex1
									{
										OFFSET 0.715260 -0.000000 -0.000000
										CHANNELS 3 Zrotation Yrotation Xrotation
										End Site
										{
											OFFSET 0.000000 0.000000 0.000000
										}
									}
								}
								JOINT LThumb
								{
									OFFSET 0.000000 0.000000 0.000000
									CHANNELS 3 Zrotation Yrotation Xrotation
									End Site
									{
										OFFSET 0.000000 0.000000 0.000000
									}
								}
							}
						}
					}
				}
				JOINT RightShoulder
				{
					OFFSET 0.000000 0.000000 0.000000
					CHANNELS 3 Zrotation Yrotation Xrotation
					JOINT RightArm
					{
						OFFSET -3.136600 1.374050 -0.404650
						CHANNELS 3 Zrotation Yrotation Xrotation
						JOINT RightForeArm
						{
							OFFSET -5.241900 -0.000000 -0.000000
							CHANNELS 3 Zrotation Yrotation Xrotation
							JOINT RightHand
							{
								OFFSET -3.444170 -0.000000 -0.000000
								CHANNELS 3 Zrotation Yrotation Xrotation
								JOINT RightFingerBase
								{
									OFFSET 0.000000 0.000000 0.000000
									CHANNELS 3 Zrotation Yrotation Xrotation
									JOINT RightHandIndex1
									{
										OFFSET -0.622530 -0.000000 -0.000000
										CHANNELS 3 Zrotation Yrotation Xrotation
										End Site
										{
											OFFSET 0.000000 0.000000 0.000000
										}
									}
								}
								JOINT RThumb
								{
									OFFSET 0.000000 0.000000 0.000000
									CHANNELS 3 Zrotation Yrotation Xrotation
									End Site
									{
										OFFSET 0.000000 0.000000 0.000000
									}
								}
							}
						}
					}
				}
			}
		}
	}
}
MOTION
Frames: 10
Frame Time: 0.008333
2.915998 16.754676 5.009681 7.083702 7.264966 29.319047 -5.848679 2.230920 5.997756 -6.796861 -8.842702 -41.114855 -3.451500 -1.181269 13.483145 0.851375 3.036934 -6.714689 0.272600 -0.000001 -39.628600 13.558042 -3.418533 4.893169 11.463237 10.250332 -6.334645 -0.029986 -1.227245 18.783244 0.466531 19.881737 30.530063 11.930500 -0.000001 -30.272100 -11.130205 -0.568434 -10.601149 -2.928350 0.267645 -4.698564 -5.034447 0.135871 1.129193 6.776661 -6.271221 -7.609548 -2.339961 -0.179230 -0.037721 0.000000 0.000000 0.000000 -0.598007 13.131008 1.085303 -45.854745 17.871991 21.948369 -179.521613 -81.205204 179.994656 3.372326 -0.584602 -0.021393 -0.128870 0.188155 -0.000000 0.000000 0.000000 0.000000 0.000000 0.000000 0.000000 7.318698 0.467375 3.317958 68.178280 36.385625 61.210375 179.519280 87.354820 -179.926995 13.689431 3.746574 0.498348 -0.164017 -0.356466 -0.000000 0.000000 0.000000 0.000000 0.000000 0.000000 0.000000 
2.986234 16.662249 5.148002 7.378198 6.728379 29.293413 -5.746450 2.262429 6.275255 -6.326656 -11.093543 -42.002855 -3.109978 -0.898560 16.869238 1.205358 4.498050 -8.133520 0.174800 -0.000000 -38.022600 13.661971 -3.326119 4.771839 11.163685 10.234106 -6.800596 -0.283150 -1.315522 21.495398 0.311349 19.683562 31.264336 12.087000 -0.000001 -34.556900 -11.305250 -0.734882 -10.610204 -2.989612 0.121787 -4.695551 -5.198406 -0.002411 1.067226 7.131904 -6.501855 -7.664280 -2.408567 -0.183721 -0.056418 0.000000 0.000000 0.000000 -0.491288 12.960094 1.157189 -45.229239 17.680113 22.553770 -179.522363 -81.222118 179.994089 3.531225 -0.328588 -0.014049 -0.133579 0.181355 -0.000000 0.000000 0.000000 0.000000 0.000000 0.000000 0.000000 7.957921 0.252675 3.220185 67.950076 36.128740 59.552460 179.477743 87.043657 -179.925689 12.992500 4.165755 0.524111 -0.149687 -0.382530 -0.000000 0.000000 0.000000 0.000000 0.000000 0.000000 0.000000 
3.056759 16.571116 5.284544 7.715646 6.172470 29.168051 -5.658172 2.275028 6.486657 -6.049284 -13.194624 -42.762422 -2.769737 -0.600413 20.497762 1.561277 5.930262 -9.596496 0.003700 0.000000 -36.346300 13.770832 -3.219681 4.608001 10.814660 10.032747 -7.353111 -0.524303 -1.399334 24.452858 0.153075 19.215880 31.770203 12.010500 -0.000000 -38.564500 -11.463618 -0.892095 -10.516587 -3.045261 -0.017201 -4.674101 -5.363196 -0.132714 0.999008 7.444845 -6.717769 -7.715388 -2.474014 -0.187843 -0.074881 0.000000 0.000000 0.000000 -0.461623 12.885141 1.243979 -44.637734 17.202444 23.133412 -179.527036 -81.378102 179.993425 3.728212 -0.089378 -0.006588 -0.140201 0.175447 -0.000000 0.000000 0.000000 0.000000 0.000000 0.000000 0.000000 8.517130 0.051261 3.060622 67.840680 35.737990 57.766432 179.461737 86.879729 -179.924358 12.137398 4.733386 0.553512 -0.131849 -0.412106 0.000000 0.000000 0.000000 0.000000 0.000000 0.000000 0.000000 
3.126295 16.484110 5.420084 8.075472 5.571317 28.945553 -5.590393 2.271827 6.621171 -6.026476 -15.009001 -43.299492 -2.462091 -0.312332 24.096503 1.897781 7.277063 -11.036804 -0.231600 0.000000 -34.794999 13.883171 -3.106385 4.416437 10.416043 9.680706 -7.992400 -0.747148 -1.482093 27.601406 -0.006402 18.418340 32.015099 11.654800 -0.000000 -42.182600 -11.603133 -1.029627 -10.333206 -3.096105 -0.139235 -4.637525 -5.530550 -0.244964 0.925309 7.714761 -6.917239 -7.761583 -2.535842 -0.191596 -0.092589 0.000000 0.000000 0.000000 -0.510293 12.902584 1.342963 -44.078271 16.438019 23.666044 -179.535756 -81.673960 179.992721 3.948894 0.107295 0.000090 -0.148428 0.170905 0.000000 0.000000 0.000000 0.000000 0.000000 0.000000 0.000000 8.993103 -0.132086 2.843842 67.872018 35.200875 55.874275 179.471406 86.870086 -179.924356 11.181503 5.409293 0.579636 -0.112167 -0.443464 -0.000000 0.000000 0.000000 0.000000 0.000000 0.000000 0.000000 
3.193310 16.404168 5.555570 8.439647 4.912930 28.647947 -5.545952 2.261552 6.680732 -6.279988 -16.443161 -43.556977 -2.210433 -0.054371 27.416558 2.202502 8.502674 -12.417501 -0.517099 -0.000000 -33.544799 13.998145 -2.992295 4.214596 9.972597 9.221407 -8.740192 -0.949049 -1.567285 30.883343 -0.167274 17.250383 31.989092 10.998999 0.000000 -45.462700 -11.725593 -1.143145 -10.087490 -3.143588 -0.239528 -4.590512 -5.702222 -0.334427 0.851044 7.948658 -7.099634 -7.804024 -2.594160 -0.194994 -0.109698 0.000000 0.000000 0.000000 -0.628942 13.012361 1.450963 -43.551099 15.380855 24.137381 -179.548951 -82.112253 179.992016 4.182116 0.245970 0.005481 -0.158014 0.168066 0.000000 0.000000 0.000000 0.000000 0.000000 0.000000 0.000000 9.395540 -0.297479 2.577090 68.052916 34.514430 53.896869 179.505624 87.008941 -179.925436 10.172587 6.145229 0.595969 -0.092131 -0.474755 -0.000000 0.000000 0.000000 0.000000 0.000000 0.000000 0.000000 
3.256415 16.333990 5.691845 8.791900 4.195399 28.306952 -5.525013 2.254585 6.674866 -6.793468 -17.442250 -43.522105 -2.027250 0.161098 30.273407 2.470620 9.580319 -13.730642 -0.839300 -0.000001 -32.702900 14.113814 -2.882260 4.019166 9.495627 8.694567 -9.630457 -1.129469 -1.658091 34.247284 -0.329246 15.698511 31.667042 10.043300 -0.000001 -48.364000 -11.831996 -1.232692 -9.813418 -3.188622 -0.317553 -4.538556 -5.879227 -0.400668 0.781682 8.156720 -7.264736 -7.844038 -2.649272 -0.198080 -0.126332 0.000000 0.000000 0.000000 -0.807685 13.209205 1.563804 -43.056221 14.039161 24.536253 -179.566896 -82.685762 179.991331 4.420597 0.322273 0.008784 -0.168740 0.167058 0.000000 0.000000 0.000000 0.000000 0.000000 0.000000 0.000000 9.739922 -0.447289 2.270314 68.378092 33.686251 51.853867 179.560857 87.279812 -179.927497 9.140321 6.889918 0.597600 -0.072730 -0.504267 0.000000 0.000000 0.000000 0.000000 0.000000 0.000000 0.000000 
3.314543 16.275769 5.829537 9.118066 3.421864 27.952784 -5.526527 2.259419 6.614697 -7.521594 -17.982359 -43.213446 -1.915872 0.327944 32.554199 2.700822 10.484211 -14.983026 -1.185500 0.000000 -32.295500 14.226511 -2.779559 3.843303 9.003716 8.132028 -10.693161 -1.289732 -1.757143 37.646367 -0.491885 13.779938 31.020513 8.815900 0.000000 -50.803800 -11.919849 -1.300444 -9.541510 -3.230976 -0.375319 -4.487055 -6.061273 -0.445849 0.719579 8.348194 -7.411747 -7.880448 -2.701353 -0.200927 -0.141840 0.000000 0.000000 0.000000 -1.039414 13.472683 1.676490 -42.591854 12.451817 24.849865 -179.589422 -83.370994 179.990677 4.659417 0.341393 0.009998 -0.180323 0.167774 0.000000 0.000000 0.000000 0.000000 0.000000 0.000000 0.000000 10.040603 -0.583316 1.936035 68.828642 32.731709 49.763340 179.631284 87.657076 -179.931174 8.092712 7.595013 0.581025 -0.054318 -0.530665 0.000000 0.000000 0.000000 0.000000 0.000000 0.000000 0.000000 
3.367138 16.230991 5.968982 9.406569 2.598600 27.606342 -5.548602 2.281474 6.509302 -8.405210 -18.065332 -42.660556 -1.874103 0.443894 34.205059 2.891891 11.188045 -16.179257 -1.541600 -0.000000 -32.282000 14.331894 -2.685860 3.694411 8.519064 7.554905 -11.941632 -1.432097 -1.866653 41.035826 -0.654349 11.544014 30.021000 7.373600 0.000001 -52.664300 -11.985195 -1.349316 -9.291539 -3.269547 -0.415825 -4.438880 -6.245947 -0.473125 0.668102 8.529848 -7.541022 -7.913554 -2.749487 -0.203488 -0.156055 0.000000 0.000000 0.000000 -1.315040 13.791493 1.784665 -42.160851 10.648097 25.075895 -179.616284 -84.144421 179.990028 4.898441 0.318035 0.009417 -0.192599 0.170017 0.000000 0.000000 0.000000 0.000000 0.000000 0.000000 0.000000 10.305197 -0.708710 1.585276 69.378491 31.674884 47.643228 179.711852 88.110021 -179.935987 7.019168 8.218863 0.543439 -0.036740 -0.553012 0.000000 0.000000 0.000000 0.000000 0.000000 0.000000 0.000000 
3.414292 16.200420 6.110209 9.642892 1.734312 27.278008 -5.592388 2.322358 6.364704 -9.373878 -17.707012 -41.898842 -1.896455 0.509750 35.221953 3.039381 11.658554 -17.312133 -1.889300 -0.000000 -32.571099 14.422039 -2.602197 3.575297 8.075625 6.981028 -13.368275 -1.558957 -1.988038 44.369759 -0.815440 9.063115 28.648993 5.794900 0.000000 -53.807900 -12.014088 -1.381598 -9.073118 -3.300818 -0.442762 -4.396360 -6.429381 -0.486473 0.625033 8.702934 -7.652460 -7.939353 -2.792565 -0.205772 -0.167490 0.000000 0.000000 0.000000 -1.630060 14.132845 1.883609 -41.767328 8.698331 25.206723 -179.646334 -84.963431 179.989350 5.138367 0.269694 0.007438 -0.205271 0.173483 0.000000 0.000000 0.000000 0.000000 0.000000 0.000000 0.000000 10.533158 -0.824660 1.230640 69.993282 30.542693 45.512648 179.796546 88.605231 -179.942177 5.900877 8.728212 0.483743 -0.019539 -0.570775 0.000000 0.000000 0.000000 0.000000 0.000000 0.000000 0.000000 
3.456586 16.184110 6.253054 9.814944 0.840260 26.966814 -5.659709 2.381029 6.184381 -10.361074 -16.940736 -40.954842 -1.975641 0.528118 35.633539 3.136628 11.866201 -18.356305 -2.204000 0.000000 -33.053700 14.488962 -2.528859 3.483003 7.707494 6.420619 -14.943662 -1.672296 -2.121887 47.602283 -0.973939 6.429576 26.898336 4.174300 0.000000 -54.105600 -11.991072 -1.399260 -8.883874 -3.320564 -0.459883 -4.359528 -6.606186 -0.489990 0.587928 8.864418 -7.746631 -7.954379 -2.828669 -0.207696 -0.174899 0.000000 0.000000 0.000000 -1.976920 14.469076 1.970082 -41.420345 6.666267 25.241763 -179.678045 -85.786726 179.988579 5.383409 0.215032 0.004858 -0.218126 0.177929 0.000000 0.000000 0.000000 0.000000 0.000000 0.000000 0.000000 10.714734 -0.932713 0.882411 70.638178 29.362358 43.391158 179.880067 89.109433 -179.949731 4.723508 9.101949 0.402634 -0.002355 -0.583785 0.000000 0.000000 0.000000 0.000000 0.000000 0.000000 0.000000 
